<mxfile host="app.diagrams.net" modified="2022-02-25T09:02:30.749Z" agent="5.0 (X11)" etag="2G8xA_10wOYVk7tNi6hi" version="16.5.3" type="github">
  <diagram id="GSSuMfWA-pwwIhmpELV4" name="Page-1">
    <mxGraphModel dx="1422" dy="788" grid="1" gridSize="10" guides="1" tooltips="1" connect="1" arrows="1" fold="1" page="1" pageScale="1" pageWidth="850" pageHeight="1100" math="0" shadow="0">
      <root>
        <mxCell id="0" />
        <mxCell id="1" parent="0" />
        <mxCell id="6TzVvgDuK3aJhI1CQyIa-64" value="" style="rounded=0;whiteSpace=wrap;html=1;" vertex="1" parent="1">
          <mxGeometry x="50" y="29" width="990" height="691" as="geometry" />
        </mxCell>
        <mxCell id="6TzVvgDuK3aJhI1CQyIa-18" value="CSVaaS" style="rounded=0;whiteSpace=wrap;html=1;verticalAlign=top;" vertex="1" parent="1">
          <mxGeometry x="189" y="59" width="740" height="630" as="geometry" />
        </mxCell>
        <mxCell id="6TzVvgDuK3aJhI1CQyIa-60" value="AWS" style="rounded=0;whiteSpace=wrap;html=1;verticalAlign=top;" vertex="1" parent="1">
          <mxGeometry x="209" y="89" width="410" height="510" as="geometry" />
        </mxCell>
        <mxCell id="6TzVvgDuK3aJhI1CQyIa-2" value="API Gateway" style="rounded=0;whiteSpace=wrap;html=1;" vertex="1" parent="1">
          <mxGeometry x="229" y="239" width="120" height="60" as="geometry" />
        </mxCell>
        <mxCell id="6TzVvgDuK3aJhI1CQyIa-14" style="edgeStyle=orthogonalEdgeStyle;rounded=0;orthogonalLoop=1;jettySize=auto;html=1;" edge="1" parent="1" source="6TzVvgDuK3aJhI1CQyIa-3" target="6TzVvgDuK3aJhI1CQyIa-2">
          <mxGeometry relative="1" as="geometry" />
        </mxCell>
        <mxCell id="6TzVvgDuK3aJhI1CQyIa-3" value="Internet" style="ellipse;shape=cloud;whiteSpace=wrap;html=1;" vertex="1" parent="1">
          <mxGeometry x="59" y="229" width="120" height="80" as="geometry" />
        </mxCell>
        <mxCell id="6TzVvgDuK3aJhI1CQyIa-4" value="AWS Lambda" style="rounded=0;whiteSpace=wrap;html=1;verticalAlign=top;" vertex="1" parent="1">
          <mxGeometry x="426" y="119" width="170" height="320" as="geometry" />
        </mxCell>
        <mxCell id="6TzVvgDuK3aJhI1CQyIa-9" value="" style="edgeStyle=orthogonalEdgeStyle;rounded=0;orthogonalLoop=1;jettySize=auto;html=1;" edge="1" parent="1" source="6TzVvgDuK3aJhI1CQyIa-5" target="6TzVvgDuK3aJhI1CQyIa-6">
          <mxGeometry relative="1" as="geometry" />
        </mxCell>
        <mxCell id="6TzVvgDuK3aJhI1CQyIa-5" value="receiveData" style="rounded=1;whiteSpace=wrap;html=1;" vertex="1" parent="1">
          <mxGeometry x="452" y="169" width="120" height="60" as="geometry" />
        </mxCell>
        <mxCell id="6TzVvgDuK3aJhI1CQyIa-10" value="" style="edgeStyle=orthogonalEdgeStyle;rounded=0;orthogonalLoop=1;jettySize=auto;html=1;" edge="1" parent="1" source="6TzVvgDuK3aJhI1CQyIa-6" target="6TzVvgDuK3aJhI1CQyIa-7">
          <mxGeometry relative="1" as="geometry" />
        </mxCell>
        <mxCell id="6TzVvgDuK3aJhI1CQyIa-6" value="validateJSON" style="rounded=1;whiteSpace=wrap;html=1;" vertex="1" parent="1">
          <mxGeometry x="452" y="259" width="120" height="60" as="geometry" />
        </mxCell>
        <mxCell id="6TzVvgDuK3aJhI1CQyIa-11" style="edgeStyle=orthogonalEdgeStyle;rounded=0;orthogonalLoop=1;jettySize=auto;html=1;" edge="1" parent="1" source="6TzVvgDuK3aJhI1CQyIa-7" target="6TzVvgDuK3aJhI1CQyIa-8">
          <mxGeometry relative="1" as="geometry" />
        </mxCell>
        <mxCell id="6TzVvgDuK3aJhI1CQyIa-7" value="convertJSONtoCSV" style="rounded=1;whiteSpace=wrap;html=1;" vertex="1" parent="1">
          <mxGeometry x="452" y="349" width="120" height="60" as="geometry" />
        </mxCell>
        <mxCell id="6TzVvgDuK3aJhI1CQyIa-12" style="edgeStyle=orthogonalEdgeStyle;rounded=0;orthogonalLoop=1;jettySize=auto;html=1;entryX=1;entryY=0.75;entryDx=0;entryDy=0;exitX=0;exitY=0.5;exitDx=0;exitDy=0;exitPerimeter=0;" edge="1" parent="1" source="6TzVvgDuK3aJhI1CQyIa-8" target="6TzVvgDuK3aJhI1CQyIa-2">
          <mxGeometry relative="1" as="geometry">
            <Array as="points">
              <mxPoint x="389" y="509" />
              <mxPoint x="389" y="284" />
            </Array>
          </mxGeometry>
        </mxCell>
        <mxCell id="6TzVvgDuK3aJhI1CQyIa-8" value="AWS&lt;br&gt;&lt;div&gt;S3 Bucket&lt;/div&gt;" style="shape=cylinder3;whiteSpace=wrap;html=1;boundedLbl=1;backgroundOutline=1;size=15;" vertex="1" parent="1">
          <mxGeometry x="482" y="469" width="60" height="80" as="geometry" />
        </mxCell>
        <mxCell id="6TzVvgDuK3aJhI1CQyIa-13" style="edgeStyle=orthogonalEdgeStyle;rounded=0;orthogonalLoop=1;jettySize=auto;html=1;exitX=1;exitY=0.25;exitDx=0;exitDy=0;entryX=0;entryY=0.5;entryDx=0;entryDy=0;" edge="1" parent="1" source="6TzVvgDuK3aJhI1CQyIa-2" target="6TzVvgDuK3aJhI1CQyIa-5">
          <mxGeometry relative="1" as="geometry">
            <Array as="points">
              <mxPoint x="389" y="254" />
              <mxPoint x="389" y="199" />
            </Array>
          </mxGeometry>
        </mxCell>
        <mxCell id="6TzVvgDuK3aJhI1CQyIa-16" style="edgeStyle=orthogonalEdgeStyle;rounded=0;orthogonalLoop=1;jettySize=auto;html=1;" edge="1" parent="1" source="6TzVvgDuK3aJhI1CQyIa-15" target="6TzVvgDuK3aJhI1CQyIa-3">
          <mxGeometry relative="1" as="geometry" />
        </mxCell>
        <mxCell id="6TzVvgDuK3aJhI1CQyIa-15" value="Benutzer" style="shape=umlActor;verticalLabelPosition=bottom;verticalAlign=top;html=1;outlineConnect=0;" vertex="1" parent="1">
          <mxGeometry x="104" y="439" width="30" height="60" as="geometry" />
        </mxCell>
        <mxCell id="6TzVvgDuK3aJhI1CQyIa-19" value="GitHub" style="rounded=0;whiteSpace=wrap;html=1;verticalAlign=top;" vertex="1" parent="1">
          <mxGeometry x="702" y="89" width="207" height="580" as="geometry" />
        </mxCell>
        <mxCell id="6TzVvgDuK3aJhI1CQyIa-25" value="" style="edgeStyle=orthogonalEdgeStyle;rounded=0;orthogonalLoop=1;jettySize=auto;html=1;" edge="1" parent="1" source="6TzVvgDuK3aJhI1CQyIa-21" target="6TzVvgDuK3aJhI1CQyIa-22">
          <mxGeometry relative="1" as="geometry" />
        </mxCell>
        <mxCell id="6TzVvgDuK3aJhI1CQyIa-21" value="Merge" style="shape=process;whiteSpace=wrap;html=1;backgroundOutline=1;" vertex="1" parent="1">
          <mxGeometry x="745" y="229" width="120" height="60" as="geometry" />
        </mxCell>
        <mxCell id="6TzVvgDuK3aJhI1CQyIa-27" value="" style="edgeStyle=orthogonalEdgeStyle;rounded=0;orthogonalLoop=1;jettySize=auto;html=1;" edge="1" parent="1" source="6TzVvgDuK3aJhI1CQyIa-22" target="6TzVvgDuK3aJhI1CQyIa-26">
          <mxGeometry relative="1" as="geometry" />
        </mxCell>
        <mxCell id="6TzVvgDuK3aJhI1CQyIa-22" value="Black" style="rounded=1;whiteSpace=wrap;html=1;" vertex="1" parent="1">
          <mxGeometry x="745" y="329" width="120" height="60" as="geometry" />
        </mxCell>
        <mxCell id="6TzVvgDuK3aJhI1CQyIa-24" style="edgeStyle=orthogonalEdgeStyle;rounded=0;orthogonalLoop=1;jettySize=auto;html=1;" edge="1" parent="1" source="6TzVvgDuK3aJhI1CQyIa-23" target="6TzVvgDuK3aJhI1CQyIa-21">
          <mxGeometry relative="1" as="geometry" />
        </mxCell>
        <mxCell id="6TzVvgDuK3aJhI1CQyIa-23" value="Repository" style="shape=cylinder3;whiteSpace=wrap;html=1;boundedLbl=1;backgroundOutline=1;size=15;" vertex="1" parent="1">
          <mxGeometry x="775" y="109" width="60" height="80" as="geometry" />
        </mxCell>
        <mxCell id="6TzVvgDuK3aJhI1CQyIa-29" value="" style="edgeStyle=orthogonalEdgeStyle;rounded=0;orthogonalLoop=1;jettySize=auto;html=1;" edge="1" parent="1" source="6TzVvgDuK3aJhI1CQyIa-26" target="6TzVvgDuK3aJhI1CQyIa-28">
          <mxGeometry relative="1" as="geometry" />
        </mxCell>
        <mxCell id="6TzVvgDuK3aJhI1CQyIa-26" value="flake8" style="rounded=1;whiteSpace=wrap;html=1;" vertex="1" parent="1">
          <mxGeometry x="745" y="409" width="120" height="60" as="geometry" />
        </mxCell>
        <mxCell id="6TzVvgDuK3aJhI1CQyIa-31" value="" style="edgeStyle=orthogonalEdgeStyle;rounded=0;orthogonalLoop=1;jettySize=auto;html=1;" edge="1" parent="1" source="6TzVvgDuK3aJhI1CQyIa-28" target="6TzVvgDuK3aJhI1CQyIa-30">
          <mxGeometry relative="1" as="geometry" />
        </mxCell>
        <mxCell id="6TzVvgDuK3aJhI1CQyIa-28" value="ShiftLeftSecurity" style="rounded=1;whiteSpace=wrap;html=1;" vertex="1" parent="1">
          <mxGeometry x="745" y="489" width="120" height="60" as="geometry" />
        </mxCell>
        <mxCell id="6TzVvgDuK3aJhI1CQyIa-36" style="edgeStyle=orthogonalEdgeStyle;rounded=0;orthogonalLoop=1;jettySize=auto;html=1;exitX=0;exitY=0.5;exitDx=0;exitDy=0;entryX=1;entryY=0.5;entryDx=0;entryDy=0;" edge="1" parent="1" source="6TzVvgDuK3aJhI1CQyIa-30" target="6TzVvgDuK3aJhI1CQyIa-5">
          <mxGeometry relative="1" as="geometry">
            <Array as="points">
              <mxPoint x="649" y="599" />
              <mxPoint x="649" y="199" />
            </Array>
          </mxGeometry>
        </mxCell>
        <mxCell id="6TzVvgDuK3aJhI1CQyIa-37" style="edgeStyle=orthogonalEdgeStyle;rounded=0;orthogonalLoop=1;jettySize=auto;html=1;exitX=0;exitY=0.5;exitDx=0;exitDy=0;entryX=1;entryY=0.5;entryDx=0;entryDy=0;" edge="1" parent="1" source="6TzVvgDuK3aJhI1CQyIa-30" target="6TzVvgDuK3aJhI1CQyIa-6">
          <mxGeometry relative="1" as="geometry">
            <Array as="points">
              <mxPoint x="649" y="599" />
              <mxPoint x="649" y="289" />
            </Array>
          </mxGeometry>
        </mxCell>
        <mxCell id="6TzVvgDuK3aJhI1CQyIa-38" style="edgeStyle=orthogonalEdgeStyle;rounded=0;orthogonalLoop=1;jettySize=auto;html=1;exitX=0;exitY=0.5;exitDx=0;exitDy=0;entryX=1;entryY=0.5;entryDx=0;entryDy=0;" edge="1" parent="1" source="6TzVvgDuK3aJhI1CQyIa-30" target="6TzVvgDuK3aJhI1CQyIa-7">
          <mxGeometry relative="1" as="geometry">
            <Array as="points">
              <mxPoint x="649" y="599" />
              <mxPoint x="649" y="379" />
            </Array>
          </mxGeometry>
        </mxCell>
        <mxCell id="6TzVvgDuK3aJhI1CQyIa-30" value="aws CLI" style="rounded=1;whiteSpace=wrap;html=1;" vertex="1" parent="1">
          <mxGeometry x="745" y="569" width="120" height="60" as="geometry" />
        </mxCell>
        <mxCell id="6TzVvgDuK3aJhI1CQyIa-34" style="rounded=0;orthogonalLoop=1;jettySize=auto;html=1;entryX=1;entryY=0.5;entryDx=0;entryDy=0;edgeStyle=orthogonalEdgeStyle;" edge="1" parent="1" source="6TzVvgDuK3aJhI1CQyIa-32" target="6TzVvgDuK3aJhI1CQyIa-21">
          <mxGeometry relative="1" as="geometry" />
        </mxCell>
        <mxCell id="6TzVvgDuK3aJhI1CQyIa-32" value="Entwickler" style="shape=umlActor;verticalLabelPosition=bottom;verticalAlign=top;html=1;outlineConnect=0;" vertex="1" parent="1">
          <mxGeometry x="969" y="229" width="30" height="60" as="geometry" />
        </mxCell>
      </root>
    </mxGraphModel>
  </diagram>
</mxfile>
